<?xml version="1.0" encoding="UTF-8"?>
<svg version="1.1" xmlns="http://www.w3.org/2000/svg" width="500" height="500">
<path d="M0 0 C1.38221741 0.00081573 1.38221741 0.00081573 2.7923584 0.00164795 C17.72954303 0.04206066 31.96860268 0.94636044 46.5625 4.375 C47.96653076 4.69645996 47.96653076 4.69645996 49.39892578 5.02441406 C87.97862681 14.09034689 121.53510017 33.72983215 150.5625 60.375 C151.39817505 61.13961548 151.39817505 61.13961548 152.25073242 61.91967773 C153.5625 63.375 153.5625 63.375 153.5625 65.375 C154.2225 65.375 154.8825 65.375 155.5625 65.375 C158.14486938 67.79500484 160.30994131 70.65152312 162.5625 73.375 C162.99916992 73.89545898 163.43583984 74.41591797 163.88574219 74.95214844 C202.20852152 120.76540907 219.14678833 178.33910387 214.09375 237.68359375 C209.65091773 279.86206615 192.20976387 320.33169694 164.5625 352.375 C163.82386719 353.23222656 163.08523438 354.08945312 162.32421875 354.97265625 C161.18982002 356.27223509 160.0490139 357.56628447 158.8984375 358.8515625 C157.74781258 360.16367864 156.67752096 361.54545614 155.625 362.9375 C153.2549602 365.73845613 150.65476334 368.00589131 147.86328125 370.37890625 C146.28696887 371.74647098 144.74363253 373.15271835 143.23046875 374.58984375 C130.47587935 386.67829485 116.05931816 396.23920962 100.51513672 404.35400391 C98.83522872 405.23239541 97.16821042 406.13535971 95.50390625 407.04296875 C82.26314432 414.04836478 67.98787494 419.00549864 53.5 422.6875 C52.60506836 422.91759766 51.71013672 423.14769531 50.78808594 423.38476562 C34.07765521 427.41607576 17.52748872 428.93178097 0.375 428.8125 C-0.56016449 428.80945862 -1.49532898 428.80641724 -2.45883179 428.80328369 C-17.45130442 428.73144779 -31.79482862 427.83551622 -46.4375 424.375 C-47.83935547 424.05354004 -47.83935547 424.05354004 -49.26953125 423.72558594 C-87.83221369 414.66520193 -123.71767172 394.7683942 -151.4375 366.375 C-150.10755617 363.42234888 -148.65970684 361.35149784 -146.36474609 359.07519531 C-145.43400772 358.14468353 -145.43400772 358.14468353 -144.48446655 357.19537354 C-143.81670197 356.53793152 -143.14893738 355.8804895 -142.4609375 355.203125 C-141.77569 354.5207074 -141.0904425 353.83828979 -140.38442993 353.13519287 C-138.19844155 350.96038402 -136.00559571 348.79263928 -133.8125 346.625 C-132.32766745 345.1502001 -130.84328694 343.67494494 -129.359375 342.19921875 C-125.7239709 338.58584552 -122.08240176 334.97879147 -118.4375 331.375 C-114.83760603 333.06839921 -112.44272813 335.10858027 -109.5625 337.875 C-78.75252981 366.55942254 -35.85072193 380.6528462 5.828125 379.66015625 C49.3314637 377.89311037 90.21937146 359.66270302 120.5625 328.375 C123.75881867 324.84304205 126.68035587 321.16570095 129.5625 317.375 C130.41989327 316.30284156 131.27799822 315.23125195 132.13671875 314.16015625 C154.66320883 285.46352545 167.3744443 246.92900676 165.5625 210.375 C165.52672852 209.61832031 165.49095703 208.86164063 165.45410156 208.08203125 C163.08673418 163.49949223 144.13181466 121.10846787 110.875 90.875 C74.65333232 60.47207412 30.93754549 46.03059849 -16.33349609 49.59326172 C-33.93513347 51.44076802 -51.32770581 56.06314335 -67.4375 63.375 C-68.08283691 63.66745605 -68.72817383 63.95991211 -69.39306641 64.26123047 C-83.62195251 70.8185288 -96.49958908 79.22469364 -108.4375 89.375 C-109.60732422 90.36113281 -109.60732422 90.36113281 -110.80078125 91.3671875 C-115.81565815 95.69936687 -120.20525375 100.28523981 -124.4375 105.375 C-125.10136719 106.1278125 -125.76523438 106.880625 -126.44921875 107.65625 C-145.16091273 129.42497118 -157.49910864 156.37454847 -162.8125 184.5 C-162.9681543 185.30848389 -163.12380859 186.11696777 -163.28417969 186.94995117 C-164.85289047 196.12260155 -164.94024386 204.92713342 -165.4375 214.375 C-142.0075 214.375 -118.5775 214.375 -94.4375 214.375 C-101.1875 222.25 -101.1875 222.25 -104.53781128 225.5955658 C-105.29491898 226.35404816 -106.05202667 227.11253052 -106.83207703 227.89399719 C-107.6427211 228.70104599 -108.45336517 229.50809479 -109.28857422 230.33959961 C-110.15751816 231.20868958 -111.0264621 232.07777954 -111.92173767 232.97320557 C-114.28520944 235.33610345 -116.65086528 237.69677261 -119.01755285 240.05644679 C-121.49772926 242.53033681 -123.97504038 245.00709282 -126.45266724 247.48353577 C-131.13599338 252.16376409 -135.82186089 256.84143926 -140.5086652 261.51818424 C-145.84805478 266.84636436 -151.18457705 272.17741237 -156.52086997 277.50869358 C-167.48991075 288.46730509 -178.46251563 299.42234076 -189.4375 310.375 C-192.75417939 309.2694402 -193.42107888 308.48626876 -195.58192444 305.86167908 C-199.54153514 301.1992267 -203.78885015 296.89722484 -208.12670898 292.58813477 C-208.96653824 291.74976578 -209.80636749 290.91139679 -210.67164612 290.04762268 C-212.48146651 288.24158641 -214.29244049 286.43670554 -216.10445976 284.63287544 C-218.96802954 281.78212462 -221.82848675 278.92828551 -224.68800354 276.07347107 C-230.74735828 270.02515936 -236.81097536 263.9811291 -242.875 257.9375 C-249.44723559 251.38730533 -256.01871154 244.83635831 -262.5853582 238.28055996 C-264.96357477 235.90651471 -267.34287099 233.53357164 -269.72460747 231.16305733 C-272.36994732 228.52959294 -275.01231462 225.89318018 -277.65405273 223.25610352 C-278.44721893 222.46810364 -279.24038513 221.68010376 -280.05758667 220.8682251 C-280.7710878 220.15479446 -281.48458893 219.44136383 -282.2197113 218.70631409 C-283.15736407 217.77199224 -283.15736407 217.77199224 -284.11395931 216.8187952 C-285.4375 215.375 -285.4375 215.375 -285.4375 214.375 C-262.0075 214.375 -238.5775 214.375 -214.4375 214.375 C-214.4375 209.095 -214.4375 203.815 -214.4375 198.375 C-214.12718657 194.61591863 -213.7761485 190.97164649 -213.25 187.25 C-213.1169043 186.28408936 -212.98380859 185.31817871 -212.84667969 184.32299805 C-206.65982824 141.7105397 -188.78781792 102.36526601 -159.51171875 70.63671875 C-157.63628414 68.59175333 -155.84717467 66.49880525 -154.0625 64.375 C-116.29356319 21.36991513 -56.02139674 -0.12496323 0 0 Z " fill="#3451B5" transform="translate(285.4375,35.625)"/>
<path d="M0 0 C14.66700578 15.18163756 18.302243 34.48357574 18.01953125 54.84765625 C17.18815788 83.06365746 -5.21695153 105.49975631 -24.18359375 124.01171875 C-31.95667337 131.19407691 -40.37470333 138.13912514 -49.18359375 144.01171875 C-25.75359375 144.34171875 -2.32359375 144.67171875 21.81640625 145.01171875 C21.81640625 158.54171875 21.81640625 172.07171875 21.81640625 186.01171875 C-30.32359375 186.01171875 -82.46359375 186.01171875 -136.18359375 186.01171875 C-136.18359375 174.01171875 -136.18359375 174.01171875 -134.05859375 170.8984375 C-133.10984375 170.17269531 -132.16109375 169.44695312 -131.18359375 168.69921875 C-130.17167969 167.88710938 -129.15976562 167.075 -128.1171875 166.23828125 C-126.66505859 165.13613281 -126.66505859 165.13613281 -125.18359375 164.01171875 C-123.86004685 162.87866364 -122.54617569 161.73412272 -121.24609375 160.57421875 C-120.60800781 160.01863281 -119.96992188 159.46304688 -119.3125 158.890625 C-114.5340881 154.6733477 -109.86170891 150.33943806 -105.18359375 146.01171875 C-104.28592285 145.18389893 -104.28592285 145.18389893 -103.37011719 144.33935547 C-95.309036 136.89530047 -87.39326567 129.3199438 -79.62109375 121.57421875 C-78.88358887 120.84130615 -78.14608398 120.10839355 -77.38623047 119.35327148 C-72.78172443 114.73565765 -68.40367718 109.98256492 -64.18359375 105.01171875 C-63.65483643 104.38966553 -63.1260791 103.7676123 -62.58129883 103.12670898 C-41.19479977 78.57281637 -41.19479977 78.57281637 -33.24609375 48.26171875 C-34.12060501 40.32075448 -36.45037634 32.11799074 -42.37109375 26.44921875 C-48.24743813 22.10917356 -55.97287428 20.11037882 -63.18359375 21.01171875 C-74.72591841 23.90695069 -81.5014947 32.09805311 -87.4765625 41.94921875 C-90.58899727 47.53308343 -93.41648792 53.25041937 -96.18359375 59.01171875 C-97.33472656 58.46644531 -98.48585938 57.92117187 -99.671875 57.359375 C-100.43258301 56.99932373 -101.19329102 56.63927246 -101.97705078 56.26831055 C-103.6703215 55.46565625 -105.36269186 54.66110007 -107.05419922 53.85473633 C-111.56384933 51.70829628 -116.08414465 49.5961456 -120.640625 47.55078125 C-121.94036255 46.95898071 -121.94036255 46.95898071 -123.26635742 46.35522461 C-124.93963959 45.59434964 -126.61813555 44.84482128 -128.30200195 44.10766602 C-129.05956787 43.76018311 -129.81713379 43.4127002 -130.59765625 43.0546875 C-131.6023999 42.6064563 -131.6023999 42.6064563 -132.62744141 42.14916992 C-134.18359375 41.01171875 -134.18359375 41.01171875 -134.9753418 39.0690918 C-136.02548741 28.69444104 -122.06511414 13.7804438 -115.859375 6.15625 C-104.82015873 -6.57834329 -89.91255862 -15.8961977 -73.18359375 -18.98828125 C-72.46042969 -19.12878906 -71.73726563 -19.26929687 -70.9921875 -19.4140625 C-46.42208001 -22.9607041 -18.45380313 -16.80319462 0 0 Z " fill="#1D3FAC" transform="translate(404.18359375,146.98828125)"/>
<path d="M0 0 C0 66.66 0 133.32 0 202 C-15.51 202 -31.02 202 -47 202 C-47.495 133.69 -47.495 133.69 -48 64 C-62.08621554 72.86901394 -62.08621554 72.86901394 -76.06640625 81.890625 C-78 83 -78 83 -80 83 C-80.46021835 76.67150491 -80.77297458 70.34735376 -80.98876953 64.00585938 C-81.07875943 61.85513301 -81.20122861 59.70549221 -81.35791016 57.55859375 C-82.58876806 40.24613484 -82.58876806 40.24613484 -78.31314087 34.88479614 C-74.10517137 31.17335737 -69.39267626 28.61235713 -64.3596344 26.19081116 C-60.51660507 24.25139114 -57.00558084 21.83440518 -53.4375 19.4375 C-52.04738379 18.53756118 -50.65566797 17.64008399 -49.26171875 16.74609375 C-46.28140289 14.82735517 -43.30524728 12.90237891 -40.33203125 10.97265625 C-39.56511963 10.47515869 -38.79820801 9.97766113 -38.00805664 9.46508789 C-36.54465424 8.51559304 -35.08158003 7.56559211 -33.61889648 6.61499023 C-32.95575439 6.18516846 -32.2926123 5.75534668 -31.609375 5.3125 C-31.03155273 4.93738281 -30.45373047 4.56226563 -29.85839844 4.17578125 C-18.1712109 -3.21852973 -21.01824952 0 0 0 Z " fill="#1D3FAD" transform="translate(241,131)"/>
<path d="M0 0 C0 66.66 0 133.32 0 202 C-0.33 202 -0.66 202 -1 202 C-1 136 -1 70 -1 2 C-22.59552975 0.77022249 -22.59552975 0.77022249 -32 9 C-32 9.99 -32 10.98 -32 12 C-33.65 12.33 -35.3 12.66 -37 13 C-36.34 13 -35.68 13 -35 13 C-35 13.66 -35 14.32 -35 15 C-36.32 15 -37.64 15 -39 15 C-39.33 15.99 -39.66 16.98 -40 18 C-40.7425 17.79375 -41.485 17.5875 -42.25 17.375 C-45.32330841 16.95591249 -46.42786866 17.38050989 -49 19 C-47.66873455 15.86933635 -46.49585573 14.34753431 -43.5859375 12.59765625 C-42.90660156 12.18193359 -42.22726563 11.76621094 -41.52734375 11.33789062 C-40.81707031 10.91701172 -40.10679687 10.49613281 -39.375 10.0625 C-38.68792969 9.64548828 -38.00085938 9.22847656 -37.29296875 8.79882812 C-35.97990292 8.00187353 -34.66431008 7.20905387 -33.34521484 6.42211914 C-22.75450644 0 -22.75450644 0 0 0 Z " fill="#233A80" transform="translate(241,131)"/>
<path d="M0 0 C0.66 0.33 1.32 0.66 2 1 C1.01 2.485 1.01 2.485 0 4 C-0.16699232 7.12521833 -0.16699232 7.12521833 0 10 C-1.65 9.67 -3.3 9.34 -5 9 C-4.67 19.89 -4.34 30.78 -4 42 C-2.02 40.35 -0.04 38.7 2 37 C2.66 37 3.32 37 4 37 C4 41 4 41 2 43.25 C1.34 43.8275 0.68 44.405 0 45 C0.66 45 1.32 45 2 45 C2.33 44.01 2.66 43.02 3 42 C4.77734375 40.83203125 4.77734375 40.83203125 6.9375 39.8125 C7.64777344 39.46832031 8.35804688 39.12414062 9.08984375 38.76953125 C11 38 11 38 13 38 C13 37.34 13 36.68 13 36 C14.32 36.33 15.64 36.66 17 37 C13.75602641 39.15505298 10.50385219 41.29739749 7.25 43.4375 C6.32960937 44.04916016 5.40921875 44.66082031 4.4609375 45.29101562 C3.57148438 45.87431641 2.68203125 46.45761719 1.765625 47.05859375 C0.94868164 47.59798584 0.13173828 48.13737793 -0.70996094 48.69311523 C-2.87174297 49.92680598 -4.59830966 50.45894273 -7 51 C-7.17764449 44.54086476 -7.30013617 38.08236001 -7.38452148 31.62133789 C-7.419701 29.42415834 -7.46745371 27.22714238 -7.52807617 25.03051758 C-7.61310406 21.87019517 -7.65271323 18.71203958 -7.68359375 15.55078125 C-7.71972275 14.57039383 -7.75585175 13.59000641 -7.79307556 12.57991028 C-7.79692587 5.87593505 -7.79692587 5.87593505 -5.39505005 3.2359314 C-3.45727539 1.84057617 -3.45727539 1.84057617 0 0 Z " fill="#1E3DA1" transform="translate(168,163)"/>
<path d="M0 0 C0.8523674 -0.00970322 1.7047348 -0.01940643 2.58293152 -0.02940369 C5.32616951 -0.05421661 8.06916116 -0.06691667 10.8125 -0.07421875 C11.74913483 -0.07683716 12.68576965 -0.07945557 13.65078735 -0.08215332 C34.02889375 -0.08825383 53.2673955 2.2635176 72.8125 8.23828125 C72.8125 8.56828125 72.8125 8.89828125 72.8125 9.23828125 C68.635717 9.37287934 65.14260681 8.97580237 61.1171875 7.875 C44.28166759 3.47333702 27.72886089 1.84412853 10.375 1.80078125 C9.58619446 1.79478912 8.79738892 1.788797 7.98468018 1.78262329 C-5.51089865 1.71431836 -18.34554724 3.3926337 -31.5 6.42578125 C-34.56459342 7.10103065 -37.07503388 7.43908552 -40.1875 7.23828125 C-39.8575 6.57828125 -39.5275 5.91828125 -39.1875 5.23828125 C-37.2890625 4.65991211 -37.2890625 4.65991211 -34.8125 4.203125 C-33.90886719 4.03361328 -33.00523437 3.86410156 -32.07421875 3.68945312 C-31.12160156 3.51994141 -30.16898438 3.35042969 -29.1875 3.17578125 C-28.26582031 3.00240234 -27.34414062 2.82902344 -26.39453125 2.65039062 C-17.59045438 1.02989411 -8.95239549 0.08544499 0 0 Z " fill="#2D469E" transform="translate(274.1875,35.76171875)"/>
<path d="M0 0 C0.55042969 0.15855469 1.10085937 0.31710937 1.66796875 0.48046875 C31.81700457 8.94089586 59.4370931 12.32418854 90.56542969 7.36376953 C94.36613918 6.79587371 98.17804107 6.39763815 102 6 C99.18652779 8.81347221 96.03266269 8.92188777 92.25 9.5625 C91.54617188 9.68818359 90.84234375 9.81386719 90.1171875 9.94335938 C88.07957959 10.30505372 86.04064988 10.65589318 84 11 C83.08879395 11.17418457 82.17758789 11.34836914 81.23876953 11.52783203 C77.53797556 12.0673568 73.89582295 12.19817321 70.1640625 12.23828125 C69.41524307 12.24780319 68.66642365 12.25732513 67.89491272 12.26713562 C65.47156969 12.29160594 63.04845004 12.30413369 60.625 12.3125 C59.80262848 12.31644775 58.98025696 12.32039551 58.13296509 12.32446289 C44.07621374 12.35597528 30.74775674 11.1238293 17 8 C17 8.66 17 9.32 17 10 C14 9 14 9 12 7 C10.72857868 6.29548949 9.43387571 5.63221167 8.125 5 C7.44695312 4.67 6.76890625 4.34 6.0703125 4 C5.38710937 3.67 4.70390625 3.34 4 3 C2.66574459 2.33518069 1.33213645 1.66905508 0 1 C0 0.67 0 0.34 0 0 Z " fill="#304697" transform="translate(226,405)"/>
<path d="M0 0 C22.77 0 45.54 0 69 0 C68.67 0.66 68.34 1.32 68 2 C47.87 2 27.74 2 7 2 C7 2.99 7 3.98 7 5 C8.64351457 6.36176922 10.31522656 7.68962066 12 9 C12.89972453 10.02038729 13.77484832 11.06295642 14.625 12.125 C16.86558382 15.11853415 16.86558382 15.11853415 20 17 C19.67 17.99 19.34 18.98 19 20 C15.8293305 16.85817898 12.66414446 13.71089125 9.5 10.5625 C8.59378906 9.66466797 7.68757812 8.76683594 6.75390625 7.84179688 C5.89667969 6.98779297 5.03945312 6.13378906 4.15625 5.25390625 C3.36025391 4.46314697 2.56425781 3.6723877 1.74414062 2.85766602 C0 1 0 1 0 0 Z " fill="#2F48A5" transform="translate(0,250)"/>
<path d="M0 0 C2 1 4 2 6 3 C6 3.66 6 4.32 6 5 C6.99 5.33 7.98 5.66 9 6 C13.95053198 12.43207805 14.12734364 22.11000415 13.921875 30 C12.82218997 38.03248192 8.83493377 44.97612398 5 52 C4.01 52 3.02 52 2 52 C2.48210937 51.0821875 2.96421875 50.164375 3.4609375 49.21875 C9.52691443 37.51779977 13.12868368 27.97796416 8.98828125 14.7734375 C6.7339643 9.04164109 4.29801447 4.42081489 0 0 Z " fill="#1D3790" transform="translate(360,171)"/>
<path d="M0 0 C1.60488281 0.02707031 1.60488281 0.02707031 3.2421875 0.0546875 C5.87072178 0.10162561 8.49738913 0.16727067 11.125 0.25 C11.125 0.58 11.125 0.91 11.125 1.25 C10.50044922 1.24887207 9.87589844 1.24774414 9.23242188 1.24658203 C6.3622252 1.25879789 3.49461358 1.31658547 0.625 1.375 C-0.35726562 1.37242187 -1.33953125 1.36984375 -2.3515625 1.3671875 C-8.72242853 1.53707726 -12.54245452 2.66091003 -17.52929688 6.67529297 C-19.19983236 8.28488027 -19.19983236 8.28488027 -18.875 11.25 C-20.525 11.58 -22.175 11.91 -23.875 12.25 C-23.215 12.25 -22.555 12.25 -21.875 12.25 C-21.875 12.91 -21.875 13.57 -21.875 14.25 C-23.195 14.25 -24.515 14.25 -25.875 14.25 C-26.205 15.24 -26.535 16.23 -26.875 17.25 C-27.6175 17.04375 -28.36 16.8375 -29.125 16.625 C-32.19830841 16.20591249 -33.30286866 16.63050989 -35.875 18.25 C-34.53418209 15.08292449 -33.33361564 13.57615847 -30.390625 11.8125 C-29.70226562 11.39226562 -29.01390625 10.97203125 -28.3046875 10.5390625 C-27.58539063 10.11367187 -26.86609375 9.68828125 -26.125 9.25 C-24.71306004 8.3966297 -23.30159442 7.54247404 -21.890625 6.6875 C-21.19791504 6.27983398 -20.50520508 5.87216797 -19.79150391 5.45214844 C-17.6569676 4.17158003 -17.6569676 4.17158003 -15.1015625 1.953125 C-10.17158672 -0.64913825 -5.47745128 -0.17538637 0 0 Z " fill="#1D3A99" transform="translate(227.875,131.75)"/>
<path d="M0 0 C0.66 0.33 1.32 0.66 2 1 C1.67 2.98 1.34 4.96 1 7 C1.99 7.33 2.98 7.66 4 8 C4 8.99 4 9.98 4 11 C3.360625 11.28875 2.72125 11.5775 2.0625 11.875 C-0.15206079 12.82823451 -0.15206079 12.82823451 -1 15 C-0.34 15 0.32 15 1 15 C1 15.66 1 16.32 1 17 C1.99 17.33 2.98 17.66 4 18 C1 19 1 19 -0.82421875 18.22265625 C-2.54947917 17.1484375 -4.27473958 16.07421875 -6 15 C-5.39644592 11.14974121 -4.23227397 8.13898841 -2.4375 4.6875 C-1.98246094 3.80449219 -1.52742188 2.92148438 -1.05859375 2.01171875 C-0.53458984 1.01591797 -0.53458984 1.01591797 0 0 Z " fill="#1E3CA6" transform="translate(275,172)"/>
<path d="M0 0 C1.15957207 3.47871621 0.77456651 4.34219645 -0.4375 7.6875 C-0.72496094 8.49574219 -1.01242188 9.30398437 -1.30859375 10.13671875 C-1.53675781 10.75160156 -1.76492187 11.36648437 -2 12 C-2.66 12 -3.32 12 -4 12 C-4.12503906 12.57105469 -4.25007813 13.14210937 -4.37890625 13.73046875 C-5.02131788 16.07789741 -5.90187576 18.11228699 -6.9375 20.3125 C-9.40508117 25.77707066 -11.36870021 30.91644655 -11 37 C-11.99 37 -12.98 37 -14 37 C-14.12375 38.27875 -14.2475 39.5575 -14.375 40.875 C-14.75 44.75 -14.75 44.75 -17 47 C-16.43801944 40.85333763 -15.07381377 35.49026245 -13 29.6875 C-12.69892334 28.83317383 -12.39784668 27.97884766 -12.08764648 27.09863281 C-8.70194259 17.76336034 -4.42864032 8.87736518 0 0 Z " fill="#35499B" transform="translate(95,150)"/>
<path d="M0 0 C0 0.66 0 1.32 0 2 C-0.88042969 2.47050781 -1.76085937 2.94101562 -2.66796875 3.42578125 C-3.82941406 4.04839844 -4.99085938 4.67101562 -6.1875 5.3125 C-7.33605469 5.92738281 -8.48460937 6.54226563 -9.66796875 7.17578125 C-11.65543338 8.26387736 -13.62263124 9.39273663 -15.5390625 10.6015625 C-18.35091111 12.19940663 -21.0985502 13.11471043 -24.1875 14.0625 C-28.52358133 15.30569476 -28.52358133 15.30569476 -32 18 C-36.03035991 18.76044527 -39.90202215 19.12418115 -44 19 C-40.72737328 16.81824885 -37.87595476 15.91973641 -34.125 14.75 C-23.55111749 11.33845074 -13.78767461 6.60789619 -4.14453125 1.1015625 C-2 0 -2 0 0 0 Z " fill="#2D489A" transform="translate(372,392)"/>
<path d="M0 0 C0 3.99626903 -1.81747873 5.7262181 -4 9 C-4 9.99 -4 10.98 -4 12 C-4 12.66 -4 13.32 -4 14 C-5.65 14.33 -7.3 14.66 -9 15 C-7.68 15 -6.36 15 -5 15 C-5 16.32 -5 17.64 -5 19 C-4.7018576 20.34164079 -4.37756808 21.67851173 -4 23 C-5.13199353 22.0919838 -6.25532363 21.17316174 -7.375 20.25 C-8.00148437 19.73953125 -8.62796875 19.2290625 -9.2734375 18.703125 C-11 17 -11 17 -13 13 C-8.71 8.71 -4.42 4.42 0 0 Z " fill="#3049A0" transform="translate(147,387)"/>
<path d="M0 0 C0 0.33 0 0.66 0 1 C-1.28632324 1.029729 -1.28632324 1.029729 -2.59863281 1.06005859 C-5.78947642 1.13829521 -8.9799474 1.22499343 -12.17041016 1.31738281 C-13.54955243 1.35559338 -14.92879167 1.39046002 -16.30810547 1.421875 C-18.29416967 1.46769624 -20.27991679 1.52666263 -22.265625 1.5859375 C-23.45961914 1.6173584 -24.65361328 1.6487793 -25.88378906 1.68115234 C-28.85591063 1.98525692 -30.4457945 2.56762207 -33 4 C-35.75 4.125 -35.75 4.125 -38 4 C-38.33 5.32 -38.66 6.64 -39 8 C-41.31 7.34 -43.62 6.68 -46 6 C-35.64845132 -4.35154868 -13.10669687 -0.84134692 0 0 Z " fill="#1E368F" transform="translate(361,128)"/>
<path d="M0 0 C1.1116307 3.33489211 0.94821705 3.85463844 -0.22265625 6.9921875 C-0.51132568 7.77424561 -0.79999512 8.55630371 -1.09741211 9.36206055 C-1.41589111 10.19133057 -1.73437012 11.02060059 -2.0625 11.875 C-2.38033447 12.7203833 -2.69816895 13.5657666 -3.02563477 14.43676758 C-5.70004658 21.44820715 -8.6965878 28.26007109 -12 35 C-13.0625 33.125 -13.0625 33.125 -14 31 C-13.67 30.34 -13.34 29.68 -13 29 C-12.34 29 -11.68 29 -11 29 C-10.67 27.02 -10.34 25.04 -10 23 C-9.34 23 -8.68 23 -8 23 C-7.90203125 22.45472656 -7.8040625 21.90945313 -7.703125 21.34765625 C-6.53573737 15.46039968 -4.55313492 10.40971621 -2 5 C-1.32165413 3.33805262 -0.64800425 1.67401097 0 0 Z " fill="#32479D" transform="translate(490,311)"/>
<path d="M0 0 C0.33 0 0.66 0 1 0 C1.33 12.54 1.66 25.08 2 38 C3.65 38 5.3 38 7 38 C4.59660228 40.76390737 3.83736322 41.04065919 0 42 C0 28.14 0 14.28 0 0 Z " fill="#253B83" transform="translate(161,172)"/>
<path d="M0 0 C4.80359656 1.67040588 8.90408593 4.25115977 13.1875 6.9375 C13.91130859 7.38029297 14.63511719 7.82308594 15.38085938 8.27929688 C16.07373047 8.71177734 16.76660156 9.14425781 17.48046875 9.58984375 C18.10848389 9.98034912 18.73649902 10.37085449 19.38354492 10.77319336 C21 12 21 12 23 15 C19.59687262 13.94124926 16.98646769 12.99097846 14 11 C14 10.34 14 9.68 14 9 C13.37351562 8.96261719 12.74703125 8.92523438 12.1015625 8.88671875 C11.28429687 8.82097656 10.46703125 8.75523438 9.625 8.6875 C8.81289063 8.62949219 8.00078125 8.57148437 7.1640625 8.51171875 C5 8 5 8 3 5 C3 4.34 3 3.68 3 3 C2.01 2.67 1.02 2.34 0 2 C0 1.34 0 0.68 0 0 Z " fill="#2E49A7" transform="translate(390,63)"/>
<path d="M0 0 C3.58273331 1.65356922 6.80973467 3.67980703 10 6 C10 6.66 10 7.32 10 8 C12.05270463 6.15811388 12.05270463 6.15811388 13 4 C13.99 4.33 14.98 4.66 16 5 C16.99 5 17.98 5 19 5 C16.69 7.31 14.38 9.62 12 12 C8.60184863 10.86728288 7.71355084 9.8090686 5.4375 7.125 C4.53837891 6.07699219 4.53837891 6.07699219 3.62109375 5.0078125 C2 3 2 3 0 0 Z " fill="#30489A" transform="translate(84,334)"/>
<path d="M0 0 C-4.22054039 2.29343691 -8.30303435 2.92593129 -13 3.6875 C-13.80695313 3.82994141 -14.61390625 3.97238281 -15.4453125 4.11914062 C-16.22648437 4.24869141 -17.00765625 4.37824219 -17.8125 4.51171875 C-18.52019531 4.62990967 -19.22789062 4.74810059 -19.95703125 4.86987305 C-22.18387233 5.01171175 -23.87622854 4.64816789 -26 4 C-19.6 0.92307692 -19.6 0.92307692 -16.5625 1.3125 C-16.046875 1.539375 -15.53125 1.76625 -15 2 C-14.67 1.34 -14.34 0.68 -14 0 C-9.06532787 -1.08562787 -4.94881513 -0.90896604 0 0 Z " fill="#354BA2" transform="translate(336,458)"/>
<path d="M0 0 C0.15339844 0.61746094 0.30679687 1.23492187 0.46484375 1.87109375 C0.8169398 3.27176783 1.18249255 4.66913937 1.5625 6.0625 C2 8 2 8 2 11 C1.01 11.33 0.02 11.66 -1 12 C-1.03738281 12.69867188 -1.07476562 13.39734375 -1.11328125 14.1171875 C-1.17902344 15.02726562 -1.24476563 15.93734375 -1.3125 16.875 C-1.37050781 17.77992188 -1.42851562 18.68484375 -1.48828125 19.6171875 C-2 22 -2 22 -5 24 C-3.62469483 15.92614962 -1.89968355 7.96600635 0 0 Z " fill="#2E479F" transform="translate(450,274)"/>
<path d="M0 0 C5.02692063 0.45699278 8.14896261 2.99241748 12 6 C12.33 5.34 12.66 4.68 13 4 C13.33 4.99 13.66 5.98 14 7 C14.66 7.33 15.32 7.66 16 8 C16 8.66 16 9.32 16 10 C18.475 10.495 18.475 10.495 21 11 C21.33 12.32 21.66 13.64 22 15 C17.29286383 12.75208333 13.07948384 9.82945991 8.75 6.9375 C7.90953125 6.38255859 7.0690625 5.82761719 6.203125 5.25585938 C5.4090625 4.72669922 4.615 4.19753906 3.796875 3.65234375 C3.06823242 3.16757568 2.33958984 2.68280762 1.58886719 2.18334961 C1.06454102 1.79284424 0.54021484 1.40233887 0 1 C0 0.67 0 0.34 0 0 Z " fill="#304495" transform="translate(369,106)"/>
<path d="M0 0 C0.33 0 0.66 0 1 0 C1.25398309 4.29057953 1.47398533 8.58223134 1.6875 12.875 C1.76033203 14.09832031 1.83316406 15.32164062 1.90820312 16.58203125 C1.96298828 17.74863281 2.01777344 18.91523438 2.07421875 20.1171875 C2.13182373 21.19597168 2.18942871 22.27475586 2.2487793 23.38623047 C2.12563354 24.68004639 2.12563354 24.68004639 2 26 C1.01 26.66 0.02 27.32 -1 28 C-2.39077316 25.21845369 -1.91544401 23.21067445 -1.66015625 20.1171875 C-1.56669922 18.95058594 -1.47324219 17.78398437 -1.37695312 16.58203125 C-1.27318359 15.35871094 -1.16941406 14.13539063 -1.0625 12.875 C-0.96259766 11.64394531 -0.86269531 10.41289062 -0.75976562 9.14453125 C-0.51162102 6.09589748 -0.2581436 3.04780074 0 0 Z " fill="#34489E" transform="translate(72,224)"/>
<path d="M0 0 C0.66 0 1.32 0 2 0 C1.45994098 9.36102297 -1.88500637 17.86801382 -8 25 C-7.43853399 20.64863841 -5.73664135 17.09872526 -3.921875 13.16015625 C-2.91448793 10.79962637 -2.32845746 8.5455453 -2 6 C-1.34 6 -0.68 6 0 6 C0 4.02 0 2.04 0 0 Z " fill="#163289" transform="translate(419,208)"/>
<path d="M0 0 C1.28656001 3.58398861 0.73199954 5.68105463 -0.625 9.1875 C-1.10839844 10.50814453 -1.10839844 10.50814453 -1.6015625 11.85546875 C-3 14 -3 14 -5.6484375 14.80078125 C-6.42445312 14.86652344 -7.20046875 14.93226563 -8 15 C-6.51194289 9.19657726 -3.40902445 4.82409121 0 0 Z " fill="#324BA4" transform="translate(104,135)"/>
<path d="M0 0 C3.84612364 1.56693926 6.12412231 4.05564903 9 7 C9.99 7.825 10.98 8.65 12 9.5 C14.85702462 11.88085385 17.41311519 14.33703034 20 17 C19.67 17.99 19.34 18.98 19 20 C15.8293305 16.85817898 12.66414446 13.71089125 9.5 10.5625 C8.59378906 9.66466797 7.68757812 8.76683594 6.75390625 7.84179688 C5.89667969 6.98779297 5.03945312 6.13378906 4.15625 5.25390625 C3.36025391 4.46314697 2.56425781 3.6723877 1.74414062 2.85766602 C0 1 0 1 0 0 Z " fill="#2F4691" transform="translate(0,250)"/>
<path d="M0 0 C0.66 0.33 1.32 0.66 2 1 C-2.95 5.95 -7.9 10.9 -13 16 C-13 11.91591468 -11.8670615 9.8670615 -9 7 C-8.01 6.34 -7.02 5.68 -6 5 C-5.67 4.01 -5.34 3.02 -5 2 C-3 1.375 -3 1.375 -1 1 C-0.67 0.67 -0.34 0.34 0 0 Z " fill="#324A99" transform="translate(178,261)"/>
<path d="M0 0 C2.625 -0.1875 2.625 -0.1875 5 0 C1.81083236 3.41640563 -1.73251432 6.10476805 -5.5625 8.75 C-6.13935547 9.16121094 -6.71621094 9.57242188 -7.31054688 9.99609375 C-11.63677066 13 -11.63677066 13 -15 13 C-11.67255674 8.46257737 -8.93997735 6.39737942 -3.875 4.09765625 C-1.68226731 2.99769991 -1.68226731 2.99769991 0 0 Z " fill="#2F4798" transform="translate(195,107)"/>
<path d="M0 0 C0.33 0.99 0.66 1.98 1 3 C0.195625 3.45375 -0.60875 3.9075 -1.4375 4.375 C-4.08856572 5.74725665 -4.08856572 5.74725665 -5 8 C-6.32467746 8.6837045 -7.65863633 9.34964186 -9 10 C-9.66 10.66 -10.32 11.32 -11 12 C-11.99 11.34 -12.98 10.68 -14 10 C-12.04312041 8.51887554 -10.08458563 7.04003653 -8.125 5.5625 C-7.56941406 5.14162109 -7.01382813 4.72074219 -6.44140625 4.28710938 C-2.2265625 1.11328125 -2.2265625 1.11328125 0 0 Z " fill="#314AA1" transform="translate(168,70)"/>
<path d="M0 0 C0.99 0.66 1.98 1.32 3 2 C2.67 2.721875 2.34 3.44375 2 4.1875 C0.83251345 6.90597545 0.83251345 6.90597545 1.125 9.5625 C1 12 1 12 -0.875 14.3125 C-3 16 -3 16 -5 16 C-3.41078475 10.63904723 -1.81027062 5.29156027 0 0 Z " fill="#2E48A1" transform="translate(444,298)"/>
<path d="M0 0 C0.66 0.33 1.32 0.66 2 1 C0.89623511 5.41505955 -0.27523683 8.40826673 -3 12 C-3 13.32 -3 14.64 -3 16 C-3.99 15.67 -4.98 15.34 -6 15 C-5.39644592 11.14974121 -4.23227397 8.13898841 -2.4375 4.6875 C-1.98246094 3.80449219 -1.52742188 2.92148438 -1.05859375 2.01171875 C-0.53458984 1.01591797 -0.53458984 1.01591797 0 0 Z " fill="#1C3593" transform="translate(275,172)"/>
<path d="M0 0 C2.97 0.495 2.97 0.495 6 1 C6.061875 1.556875 6.12375 2.11375 6.1875 2.6875 C7.3476371 5.98942866 9.45559795 7.62907991 12 10 C13.66666667 11.66666667 15.33333333 13.33333333 17 15 C16.67 15.66 16.34 16.32 16 17 C13.32932797 14.3581833 10.66414667 11.7108958 8 9.0625 C7.236875 8.30775391 6.47375 7.55300781 5.6875 6.77539062 C4.965625 6.05673828 4.24375 5.33808594 3.5 4.59765625 C2.8296875 3.93258057 2.159375 3.26750488 1.46875 2.58227539 C0 1 0 1 0 0 Z " fill="#2F4694" transform="translate(25,275)"/>
<path d="M0 0 C0.66 0.33 1.32 0.66 2 1 C2 1.99 2 2.98 2 4 C0.845 4.515625 -0.31 5.03125 -1.5 5.5625 C-6.34926341 7.96115351 -10.09432394 11.30207267 -14 15 C-14.66 14.67 -15.32 14.34 -16 14 C-10.74557475 9.23363401 -5.49783089 4.48507257 0 0 Z " fill="#344492" transform="translate(152,81)"/>
<path d="M0 0 C5.445 1.485 5.445 1.485 11 3 C11 3.66 11 4.32 11 5 C14.3 5.66 17.6 6.32 21 7 C19.68 7.33 18.36 7.66 17 8 C17 8.66 17 9.32 17 10 C14 9 14 9 12 7 C10.72857868 6.29548949 9.43387571 5.63221167 8.125 5 C7.44695312 4.67 6.76890625 4.34 6.0703125 4 C5.38710937 3.67 4.70390625 3.34 4 3 C2.66574459 2.33518069 1.33213645 1.66905508 0 1 C0 0.67 0 0.34 0 0 Z " fill="#304AA4" transform="translate(226,405)"/>
<path d="M0 0 C2.53731364 1.26865682 2.78646846 2.49709121 4 5 C4.66 5.66 5.32 6.32 6 7 C5.34 7 4.68 7 4 7 C4.33 7.99 4.66 8.98 5 10 C3.5625 12.1875 3.5625 12.1875 2 14 C0.12175109 12.12175109 0.60897603 8.96064724 0.4375 6.4375 C0.35371094 5.23996094 0.26992188 4.04242188 0.18359375 2.80859375 C0.12300781 1.88175781 0.06242187 0.95492187 0 0 Z " fill="#2F4BA5" transform="translate(449,219)"/>
<path d="M0 0 C0.66 0.33 1.32 0.66 2 1 C1.46890625 1.72445312 0.9378125 2.44890625 0.390625 3.1953125 C-3.17130784 8.07022059 -6.71404976 12.93416005 -10 18 C-10.33 17.34 -10.66 16.68 -11 16 C-9.75 12.4375 -9.75 12.4375 -8 9 C-7.01 8.67 -6.02 8.34 -5 8 C-4.30341637 6.34561387 -3.63903117 4.67745682 -3 3 C-1.375 1.1875 -1.375 1.1875 0 0 Z " fill="#2D4794" transform="translate(154,146)"/>
<path d="M0 0 C2.0245738 1.93254772 3.42105792 3.63158688 5 6 C6.87953069 7.93728377 6.87953069 7.93728377 8.5625 9.3125 C10.38819409 11.45570611 10.62810963 13.24801123 11 16 C6.41283413 11.55618306 2.21237287 6.79771501 -2 2 C-1.34 1.34 -0.68 0.68 0 0 Z " fill="#2F489A" transform="translate(410,137)"/>
<path d="M0 0 C-2.62035018 1.36389525 -5.24556999 2.71632173 -7.875 4.0625 C-8.99455078 4.64741211 -8.99455078 4.64741211 -10.13671875 5.24414062 C-10.85214844 5.60830078 -11.56757813 5.97246094 -12.3046875 6.34765625 C-13.2944458 6.85824585 -13.2944458 6.85824585 -14.30419922 7.37915039 C-14.86381348 7.58403076 -15.42342773 7.78891113 -16 8 C-16.66 7.67 -17.32 7.34 -18 7 C-17.01 6.67 -16.02 6.34 -15 6 C-15 5.01 -15 4.02 -15 3 C-13.35 3 -11.7 3 -10 3 C-10 2.34 -10 1.68 -10 1 C-3.375 -1.125 -3.375 -1.125 0 0 Z " fill="#3148A0" transform="translate(218,99)"/>
<path d="M0 0 C3.11257569 0 5.10765685 0.17361624 8 1 C6.40629329 2.36646148 4.79967018 3.71787166 3.1875 5.0625 C1.84751953 6.19365234 1.84751953 6.19365234 0.48046875 7.34765625 C-0.74736328 8.16556641 -0.74736328 8.16556641 -2 9 C-2.99 8.67 -3.98 8.34 -5 8 C-4.360625 7.608125 -3.72125 7.21625 -3.0625 6.8125 C-0.56221181 4.61527704 -0.35049575 3.24208567 0 0 Z " fill="#3249A4" transform="translate(410,418)"/>
<path d="M0 0 C1.32 0.33 2.64 0.66 4 1 C1.545324 2.67228535 -0.91339674 4.3379686 -3.375 6 C-4.42300781 6.71542969 -4.42300781 6.71542969 -5.4921875 7.4453125 C-6.1625 7.89648438 -6.8328125 8.34765625 -7.5234375 8.8125 C-8.14138184 9.23144531 -8.75932617 9.65039062 -9.39599609 10.08203125 C-11 11 -11 11 -13 11 C-13 10.34 -13 9.68 -13 9 C-12.34 9 -11.68 9 -11 9 C-10.67 8.01 -10.34 7.02 -10 6 C-8.22265625 4.83203125 -8.22265625 4.83203125 -6.0625 3.8125 C-5.35222656 3.46832031 -4.64195312 3.12414062 -3.91015625 2.76953125 C-2 2 -2 2 0 2 C0 1.34 0 0.68 0 0 Z " fill="#1D368C" transform="translate(181,199)"/>
<path d="M0 0 C0 3.94720688 -1.52509109 5.01555103 -4 8 C-4.28875 8.721875 -4.5775 9.44375 -4.875 10.1875 C-6.59785569 12.96321195 -8.95207895 13.20489016 -12 14 C-8.34161026 8.88863277 -4.55388068 4.33702922 0 0 Z " fill="#1B3592" transform="translate(297,144)"/>
<path d="M0 0 C3.79303725 1.00193437 6.71536341 1.81024227 10 4 C9.67 4.99 9.34 5.98 9 7 C6.36 7.33 3.72 7.66 1 8 C1.33 7.01 1.66 6.02 2 5 C2.99 5 3.98 5 5 5 C5 4.34 5 3.68 5 3 C4.360625 2.87625 3.72125 2.7525 3.0625 2.625 C2.381875 2.41875 1.70125 2.2125 1 2 C0.67 1.34 0.34 0.68 0 0 Z " fill="#193797" transform="translate(384,135)"/>
<path d="M0 0 C-3.34625379 2.23083586 -6.72240778 3.42470489 -10.5 4.6875 C-11.51513672 5.04424805 -11.51513672 5.04424805 -12.55078125 5.40820312 C-17.64049844 7.11983385 -17.64049844 7.11983385 -21 6 C-14.49676064 1.79202159 -7.73786734 -0.22108192 0 0 Z " fill="#35479C" transform="translate(243,89)"/>
<path d="M0 0 C3.67689304 1.5278414 5.90198808 3.75627506 8.625 6.625 C10.04510127 8.12058838 11.49594968 9.58886398 13 11 C13.66 11 14.32 11 15 11 C15.33 12.65 15.66 14.3 16 16 C10.35573231 11.31645873 4.9941954 6.3792354 0 1 C0 0.67 0 0.34 0 0 Z " fill="#2F4592" transform="translate(44,294)"/>
<path d="M0 0 C5.03066666 0.47911111 7.90538903 2.11516045 12 5 C12.66 5 13.32 5 14 5 C14.33 6.32 14.66 7.64 15 9 C11.32305352 7.62859834 8.04681411 5.96304199 4.6875 3.9375 C3.80449219 3.41027344 2.92148438 2.88304687 2.01171875 2.33984375 C1.34785156 1.89769531 0.68398437 1.45554687 0 1 C0 0.67 0 0.34 0 0 Z " fill="#33489F" transform="translate(168,429)"/>
<path d="M0 0 C2.47186455 2.96346786 3.66248361 5.54041689 4.6875 9.25 C4.93886719 10.14203125 5.19023437 11.0340625 5.44921875 11.953125 C5.72185547 12.96632812 5.72185547 12.96632812 6 14 C5.34 14 4.68 14 4 14 C4 13.01 4 12.02 4 11 C3.01 10.67 2.02 10.34 1 10 C-1.125 3.625 -1.125 3.625 0 0 Z " fill="#2F469C" transform="translate(481,163)"/>
<path d="M0 0 C4.24404412 3.88026891 7.10917547 8.04254346 10 13 C9.01 13.495 9.01 13.495 8 14 C7.443125 13.113125 6.88625 12.22625 6.3125 11.3125 C4.22146208 8.15720622 1.75433765 5.60131889 -1 3 C-0.67 2.01 -0.34 1.02 0 0 Z " fill="#2D459F" transform="translate(457,122)"/>
<path d="M0 0 C1 3 1 3 0.2578125 4.8671875 C-0.30292969 5.86105469 -0.30292969 5.86105469 -0.875 6.875 C-2.50544709 9.92224939 -3.56627888 12.53023101 -4 16 C-5.32 16.33 -6.64 16.66 -8 17 C-6.3341708 10.83643195 -3.12194714 5.51740344 0 0 Z " fill="#2C4196" transform="translate(435,321)"/>
<path d="M0 0 C4.87422257 -0.57343795 7.10798056 1.21998611 11 4 C12.093125 4.53625 13.18625 5.0725 14.3125 5.625 C17 7 17 7 18 9 C13.64029169 7.65150163 9.68658562 5.95092154 5.625 3.875 C4.56539063 3.33617187 3.50578125 2.79734375 2.4140625 2.2421875 C1.61742187 1.83226562 0.82078125 1.42234375 0 1 C0 0.67 0 0.34 0 0 Z " fill="#1A328D" transform="translate(283,193)"/>
<path d="M0 0 C1.11196276 3.33588828 1.09809194 4.70572419 0 8 C-1.9375 9.0625 -1.9375 9.0625 -4 10 C-5.26804566 12.0335948 -5.26804566 12.0335948 -6 14 C-6.33 13.01 -6.66 12.02 -7 11 C-5.56640625 8.30078125 -5.56640625 8.30078125 -3.5625 5.3125 C-2.57443359 3.82169922 -2.57443359 3.82169922 -1.56640625 2.30078125 C-1.04949219 1.54152344 -0.53257812 0.78226563 0 0 Z " fill="#1D3596" transform="translate(284,158)"/>
<path d="M0 0 C0 3.43801737 -0.37648923 4.96474074 -2 8 C-4.20931184 10.16339081 -6.56080866 12.10212652 -9 14 C-9.66 13.67 -10.32 13.34 -11 13 C-10.45730469 12.39671875 -9.91460937 11.7934375 -9.35546875 11.171875 C-8.64003906 10.37265625 -7.92460937 9.5734375 -7.1875 8.75 C-6.47980469 7.96109375 -5.77210938 7.1721875 -5.04296875 6.359375 C-3.25831065 4.2983167 -1.60240938 2.20394477 0 0 Z " fill="#1A3485" transform="translate(353,236)"/>
<path d="M0 0 C0.33 0.66 0.66 1.32 1 2 C3.11846285 2.68729254 3.11846285 2.68729254 5.5625 3.125 C6.80193359 3.37636719 6.80193359 3.37636719 8.06640625 3.6328125 C8.70449219 3.75398438 9.34257812 3.87515625 10 4 C10 4.33 10 4.66 10 5 C8.27014758 4.88487847 6.54111249 4.75744323 4.8125 4.625 C3.84957031 4.55539062 2.88664063 4.48578125 1.89453125 4.4140625 C-1.01508938 3.99784147 -3.32890774 3.20125904 -6 2 C-2.25 0 -2.25 0 0 0 Z " fill="#314CA1" transform="translate(240,456)"/>
<path d="M0 0 C2.0625 0.4375 2.0625 0.4375 4 1 C3.49210937 1.30292969 2.98421875 1.60585937 2.4609375 1.91796875 C-2.02639994 4.64902618 -6.04684564 7.54098993 -10 11 C-10 10.01 -10 9.02 -10 8 C-9.34 8 -8.68 8 -8 8 C-8 7.01 -8 6.02 -8 5 C-6.20963542 3.99088542 -4.41927083 2.98177083 -2.62890625 1.97265625 C-1.02121854 1.1027487 -1.02121854 1.1027487 0 0 Z " fill="#21388A" transform="translate(333,168)"/>
<path d="M0 0 C2.31 0.33 4.62 0.66 7 1 C7.33 1.99 7.66 2.98 8 4 C7.34 4.66 6.68 5.32 6 6 C5.3574765 8.06874034 5.3574765 8.06874034 5 10 C4.16121545 8.71186658 3.32913217 7.41936744 2.5 6.125 C2.0359375 5.40570313 1.571875 4.68640625 1.09375 3.9453125 C0 2 0 2 0 0 Z " fill="#304BA0" transform="translate(421,153)"/>
<path d="M0 0 C0.66 0.33 1.32 0.66 2 1 C-2.146171 5.38309505 -5.93299833 8.87648117 -12 10 C-8.29909479 6.0747975 -4.45040344 3.05419844 0 0 Z " fill="#2F4491" transform="translate(389,379)"/>
<path d="M0 0 C0.66 0.33 1.32 0.66 2 1 C-0.97 3.97 -3.94 6.94 -7 10 C-8.43088528 7.13822943 -7.59991697 5.06624227 -7 2 C-6.401875 2.226875 -5.80375 2.45375 -5.1875 2.6875 C-4.465625 2.790625 -3.74375 2.89375 -3 3 C-1.22809091 1.64555699 -1.22809091 1.64555699 0 0 Z " fill="#314B9D" transform="translate(135,304)"/>
<path d="M0 0 C0.66 1.32 1.32 2.64 2 4 C2.99 3.34 3.98 2.68 5 2 C3.63016497 5.16115776 3.0109362 5.9927092 0 8 C-0.99 7.01 -1.98 6.02 -3 5 C-1.125 1.125 -1.125 1.125 0 0 Z " fill="#1C3B9C" transform="translate(397,244)"/>
<path d="M0 0 C0.66 0 1.32 0 2 0 C6.42857143 7.42857143 6.42857143 7.42857143 7 11 C7.66 11 8.32 11 9 11 C9 12.65 9 14.3 9 16 C6.40962402 12.79509037 4.62056844 9.44649547 2.8125 5.75 C2.01779297 4.13351563 2.01779297 4.13351563 1.20703125 2.484375 C0.80871094 1.66453125 0.41039062 0.8446875 0 0 Z " fill="#2C4492" transform="translate(427,163)"/>
<path d="M0 0 C1.65 0 3.3 0 5 0 C5 0.66 5 1.32 5 2 C7.98241547 2.77321882 10.97580475 3.41196203 14 4 C14 4.99 14 5.98 14 7 C9.0276578 5.50829734 4.58154261 3.39542583 0 1 C0 0.67 0 0.34 0 0 Z " fill="#3247A8" transform="translate(183,438)"/>
<path d="M0 0 C0 0.66 0 1.32 0 2 C-1.95330868 3.03041513 -3.91281528 4.0490893 -5.875 5.0625 C-6.96554687 5.63097656 -8.05609375 6.19945312 -9.1796875 6.78515625 C-10.11039062 7.18605469 -11.04109375 7.58695312 -12 8 C-12.66 7.67 -13.32 7.34 -14 7 C-12.04480616 5.82807953 -10.0857461 4.6626071 -8.125 3.5 C-7.03445313 2.8503125 -5.94390625 2.200625 -4.8203125 1.53125 C-2 0 -2 0 0 0 Z " fill="#324294" transform="translate(372,392)"/>
<path d="M0 0 C5.43614072 2.7832093 9.93265026 5.40783094 14 10 C10.59687262 8.94124926 7.98646769 7.99097846 5 6 C5 5.34 5 4.68 5 4 C2.525 3.01 2.525 3.01 0 2 C0 1.34 0 0.68 0 0 Z " fill="#304593" transform="translate(399,68)"/>
<path d="M0 0 C0.66 0.33 1.32 0.66 2 1 C-1.01148016 4.47478479 -3.50735835 5.97043629 -8 7 C-10.1875 6.54296875 -10.1875 6.54296875 -12 6 C-10.04669132 4.96958487 -8.08718472 3.9509107 -6.125 2.9375 C-5.03445312 2.36902344 -3.94390625 1.80054688 -2.8203125 1.21484375 C-1.42425781 0.61349609 -1.42425781 0.61349609 0 0 Z " fill="#304BA1" transform="translate(199,53)"/>
<path d="M0 0 C-3.3 3.3 -6.6 6.6 -10 10 C-10 5.92453987 -8.44695552 4.19463638 -6 1 C-2.6 -1.3 -2.6 -1.3 0 0 Z " fill="#324996" transform="translate(127,315)"/>
<path d="M0 0 C-6.39130435 4.26086957 -6.39130435 4.26086957 -10.3125 3.625 C-10.869375 3.41875 -11.42625 3.2125 -12 3 C-7.40611595 -0.52197777 -5.79080563 -1.13298371 0 0 Z " fill="#344CA6" transform="translate(359,451)"/>
<path d="M0 0 C2.04119788 1.61594832 4.04072937 3.2856382 6 5 C6 5.66 6 6.32 6 7 C6.66 7.33 7.32 7.66 8 8 C6 9 6 9 4 8.5 C0.99907343 6.24930507 0.78968694 3.55359122 0 0 Z " fill="#2B47A2" transform="translate(433,94)"/>
<path d="M0 0 C0.66 0.66 1.32 1.32 2 2 C1.67 2.99 1.34 3.98 1 5 C1.66 5 2.32 5 3 5 C3.33 5.99 3.66 6.98 4 8 C0.54074837 6.7508258 -2.14693203 5.32472205 -5 3 C-4.01 3 -3.02 3 -2 3 C-1.67 2.34 -1.34 1.68 -1 1 C-0.67 0.67 -0.34 0.34 0 0 Z " fill="#3349A2" transform="translate(365,98)"/>
<path d="M0 0 C0.66 0.66 1.32 1.32 2 2 C0.68 4.64 -0.64 7.28 -2 10 C-4 6 -4 6 -3.625 3.75 C-3.41875 3.1725 -3.2125 2.595 -3 2 C-2.01 2 -1.02 2 0 2 C0 1.34 0 0.68 0 0 Z " fill="#16379C" transform="translate(313,190)"/>
<path d="M0 0 C2.00293347 3.00440021 2.49271626 4.70993945 3.125 8.1875 C3.37636719 9.53908203 3.37636719 9.53908203 3.6328125 10.91796875 C3.75398438 11.60503906 3.87515625 12.29210937 4 13 C3.67 12.34 3.34 11.68 3 11 C2.34 11 1.68 11 1 11 C-0.28317892 7.15046324 -0.06643637 4.05261865 0 0 Z " fill="#314999" transform="translate(489,183)"/>
<path d="M0 0 C3.26008643 3.16952847 6.22237877 6.39937989 9 10 C8.67 10.66 8.34 11.32 8 12 C6.79557292 10.50260417 5.59114583 9.00520833 4.38671875 7.5078125 C2.87729455 5.74707893 2.87729455 5.74707893 0 4 C0 2.68 0 1.36 0 0 Z " fill="#304594" transform="translate(448,110)"/>
<path d="M0 0 C0 0.66 0 1.32 0 2 C-7.28571429 6.42857143 -7.28571429 6.42857143 -12 7 C-3.55172414 0 -3.55172414 0 0 0 Z " fill="#1D3485" transform="translate(313,135)"/>
<path d="M0 0 C1.65 0 3.3 0 5 0 C5.66 1.65 6.32 3.3 7 5 C4.69 4.34 2.38 3.68 0 3 C0 2.01 0 1.02 0 0 Z " fill="#324AA8" transform="translate(215,450)"/>
<path d="M0 0 C0.66 0 1.32 0 2 0 C0.6062718 4.43458973 -1.60582235 6.87378374 -5 10 C-5.33 9.34 -5.66 8.68 -6 8 C-5.34 8 -4.68 8 -4 8 C-4 7.01 -4 6.02 -4 5 C-3.34 4.67 -2.68 4.34 -2 4 C-0.86649466 1.98330173 -0.86649466 1.98330173 0 0 Z " fill="#2E4A97" transform="translate(465,364)"/>
<path d="M0 0 C0.66 0.33 1.32 0.66 2 1 C-0.31 3.31 -2.62 5.62 -5 8 C-6 5 -6 5 -5 2 C-3 1.375 -3 1.375 -1 1 C-0.67 0.67 -0.34 0.34 0 0 Z " fill="#324A9A" transform="translate(114,325)"/>
<path d="M0 0 C0.66 0.33 1.32 0.66 2 1 C-1.96 4.465 -1.96 4.465 -6 8 C-6.33 7.34 -6.66 6.68 -7 6 C-6.34 5.67 -5.68 5.34 -5 5 C-4.5359375 4.01 -4.5359375 4.01 -4.0625 3 C-3 1 -3 1 0 0 Z " fill="#19348E" transform="translate(375,272)"/>
<path d="M0 0 C-2.64 1.65 -5.28 3.3 -8 5 C-8 4.01 -8 3.02 -8 2 C-7.34 2 -6.68 2 -6 2 C-6 1.34 -6 0.68 -6 0 C-4 -1 -4 -1 0 0 Z " fill="#314B9C" transform="translate(406,428)"/>
<path d="M0 0 C0.33 0.99 0.66 1.98 1 3 C-2.4019487 5.09350689 -5.05272412 5.17942163 -9 5 C-6.47043472 1.9083091 -3.77545388 1.09068668 0 0 Z " fill="#334BAB" transform="translate(381,387)"/>
<path d="M0 0 C0.66 0.33 1.32 0.66 2 1 C-0.31 3.31 -2.62 5.62 -5 8 C-5.33 7.34 -5.66 6.68 -6 6 C-5.0950754 3.36749208 -4.34351194 2.22542971 -2 0.6875 C-1.34 0.460625 -0.68 0.23375 0 0 Z " fill="#324A99" transform="translate(157,282)"/>
<path d="M0 0 C0.66 0 1.32 0 2 0 C1.125 7.75 1.125 7.75 0 10 C-0.66 10 -1.32 10 -2 10 C-2 8.68 -2 7.36 -2 6 C-1.34 6 -0.68 6 0 6 C0 4.02 0 2.04 0 0 Z " fill="#1A3A95" transform="translate(419,208)"/>
<path d="M0 0 C-5.75 5 -5.75 5 -8 5 C-7.67 3.35 -7.34 1.7 -7 0 C-2.25 -1.125 -2.25 -1.125 0 0 Z " fill="#1B358D" transform="translate(364,284)"/>
<path d="M0 0 C0.33 0 0.66 0 1 0 C1 1.65 1 3.3 1 5 C1.66 5.33 2.32 5.66 3 6 C2.34 7.32 1.68 8.64 1 10 C0.34 10 -0.32 10 -1 10 C-0.67 6.7 -0.34 3.4 0 0 Z M3 4 C5 5 5 5 5 5 Z " fill="#314BA0" transform="translate(74,211)"/>
<path d="M0 0 C0.33 0.66 0.66 1.32 1 2 C-3.455 4.97 -3.455 4.97 -8 8 C-8 7.01 -8 6.02 -8 5 C-6.25 3.61328125 -6.25 3.61328125 -4 2.3125 C-3.2575 1.87550781 -2.515 1.43851563 -1.75 0.98828125 C-1.1725 0.66214844 -0.595 0.33601562 0 0 Z " fill="#1D3287" transform="translate(201,142)"/>
<path d="M0 0 C0.66 0.33 1.32 0.66 2 1 C-0.31 3.64 -2.62 6.28 -5 9 C-5.33 8.01 -5.66 7.02 -6 6 C-4 4 -2 2 0 0 Z " fill="#314892" transform="translate(162,137)"/>
<path d="M0 0 C0.33 0.66 0.66 1.32 1 2 C-0.4375 4.625 -0.4375 4.625 -2 7 C-3.32 6.67 -4.64 6.34 -6 6 C-4.02 4.02 -2.04 2.04 0 0 Z " fill="#30459D" transform="translate(397,372)"/>
<path d="M0 0 C0.66 0 1.32 0 2 0 C2.33 0.99 2.66 1.98 3 3 C5.01508358 3.73323796 5.01508358 3.73323796 7 4 C5.68 4.99 4.36 5.98 3 7 C0 3.375 0 3.375 0 0 Z " fill="#334BA2" transform="translate(450,376)"/>
<path d="M0 0 C0.66 1.32 1.32 2.64 2 4 C1.01 4.33 0.02 4.66 -1 5 C-2.37195574 6.29355827 -3.71182656 7.62298702 -5 9 C-3.7508258 5.54074837 -2.32472205 2.85306797 0 0 Z " fill="#2F449A" transform="translate(426,338)"/>
<path d="M0 0 C0 4.31618166 -2.13270348 5.92789659 -5 9 C-5.66 9 -6.32 9 -7 9 C-5.44499019 5.18315774 -2.96404505 2.80804268 0 0 Z " fill="#193483" transform="translate(341,251)"/>
<path d="M0 0 C0.33 0.66 0.66 1.32 1 2 C0.0625 4.125 0.0625 4.125 -1 6 C-3.31 5.01 -5.62 4.02 -8 3 C-4.86650268 1.95550089 -4.01031744 2.06576355 -1 3 C-0.67 2.01 -0.34 1.02 0 0 Z " fill="#1D3182" transform="translate(309,200)"/>
<path d="M0 0 C0.6875 1.75 0.6875 1.75 1 4 C-0.4375 6.25 -0.4375 6.25 -2 8 C-2.33 5.69 -2.66 3.38 -3 1 C-2.01 0.67 -1.02 0.34 0 0 Z " fill="#2E4AA9" transform="translate(439,175)"/>
<path d="M0 0 C0.66 0.33 1.32 0.66 2 1 C2 1.99 2 2.98 2 4 C-2.625 6.125 -2.625 6.125 -6 5 C-4.02 3.35 -2.04 1.7 0 0 Z " fill="#31459F" transform="translate(152,81)"/>
<path d="M0 0 C3.25543229 0.34879632 4.01873107 1.02133261 6.25 3.5625 C6.8275 4.366875 7.405 5.17125 8 6 C7.67 6.66 7.34 7.32 7 8 C5.83035398 6.8572081 4.66435444 5.71068285 3.5 4.5625 C2.8503125 3.92441406 2.200625 3.28632813 1.53125 2.62890625 C0 1 0 1 0 0 Z " fill="#2F468F" transform="translate(66,316)"/>
</svg>
